<svg width="19" height="19" viewBox="0 0 19 19" fill="none" xmlns="http://www.w3.org/2000/svg">
<path d="M5.66785 14.0525V15.6852" stroke="#6D737A" stroke-width="1.08848" stroke-linecap="round" stroke-linejoin="round"/>
<path d="M13.2872 14.0525V15.6852" stroke="#6D737A" stroke-width="1.08848" stroke-linecap="round" stroke-linejoin="round"/>
<path d="M4.57935 8.0659V4.52833C4.57935 4.16747 4.72269 3.8214 4.97786 3.56624C5.23302 3.31107 5.57909 3.16772 5.93995 3.16772C6.3008 3.16772 6.64688 3.31107 6.90204 3.56624C7.1572 3.8214 7.30055 4.16747 7.30055 4.52833" stroke="#6D737A" stroke-width="1.08848" stroke-linecap="round" stroke-linejoin="round"/>
<path d="M14.3757 7.52161H10.0217V10.7871H14.3757V7.52161Z" stroke="#6D737A" stroke-width="1.08848" stroke-linecap="round" stroke-linejoin="round"/>
<path d="M14.3757 8.06592H16.5527C16.697 8.06592 16.8354 8.12326 16.9375 8.22532C17.0396 8.32739 17.0969 8.46582 17.0969 8.61016V10.7871C17.0969 11.6532 16.7529 12.4838 16.1405 13.0961C15.5281 13.7085 14.6975 14.0526 13.8315 14.0526H5.1236C4.25755 14.0526 3.42697 13.7085 2.81458 13.0961C2.20219 12.4838 1.85815 11.6532 1.85815 10.7871V8.61016C1.85815 8.46582 1.91549 8.32739 2.01756 8.22532C2.11962 8.12326 2.25805 8.06592 2.4024 8.06592H10.0218" stroke="#6D737A" stroke-width="1.08848" stroke-linecap="round" stroke-linejoin="round"/>
</svg>
