<svg width="18" height="19" viewBox="0 0 18 19" fill="none" xmlns="http://www.w3.org/2000/svg">
<path d="M1.0885 9.1543H16.3273" stroke="#6D737A" stroke-width="1.08848" stroke-linecap="round" stroke-linejoin="round"/>
<path d="M15.2388 13.5083V15.141C15.2388 15.2854 15.1814 15.4238 15.0794 15.5259C14.9773 15.6279 14.8389 15.6853 14.6945 15.6853H13.0618C12.9175 15.6853 12.779 15.6279 12.677 15.5259C12.5749 15.4238 12.5176 15.2854 12.5176 15.141V13.5083" stroke="#6D737A" stroke-width="1.08848" stroke-linecap="round" stroke-linejoin="round"/>
<path d="M4.89815 13.5083V15.141C4.89815 15.2854 4.84081 15.4238 4.73874 15.5259C4.63668 15.6279 4.49825 15.6853 4.35391 15.6853H2.72118C2.57684 15.6853 2.43841 15.6279 2.33635 15.5259C2.23428 15.4238 2.17694 15.2854 2.17694 15.141V13.5083" stroke="#6D737A" stroke-width="1.08848" stroke-linecap="round" stroke-linejoin="round"/>
<path d="M4.35394 11.3313H5.44243" stroke="#6D737A" stroke-width="1.08848" stroke-linecap="round" stroke-linejoin="round"/>
<path d="M11.9733 11.3313H13.0618" stroke="#6D737A" stroke-width="1.08848" stroke-linecap="round" stroke-linejoin="round"/>
<path d="M15.2387 9.1544L13.2046 4.58277C13.1624 4.48605 13.093 4.40369 13.0048 4.34572C12.9167 4.28774 12.8135 4.25665 12.708 4.25623H4.70766C4.60214 4.25665 4.49901 4.28774 4.41084 4.34572C4.32267 4.40369 4.25325 4.48605 4.21104 4.58277L2.17694 9.1544V13.5083H15.2387V9.1544Z" stroke="#6D737A" stroke-width="1.08848" stroke-linecap="round" stroke-linejoin="round"/>
</svg>
