<svg width="18" height="19" viewBox="0 0 18 19" fill="none" xmlns="http://www.w3.org/2000/svg">
<path d="M1.0885 9.1543H16.3273" stroke="#6D737A" stroke-width="1.08848" stroke-linecap="round" stroke-linejoin="round"/>
<path d="M15.2388 13.5083V15.141C15.2388 15.2854 15.1814 15.4238 15.0794 15.5259C14.9773 15.6279 14.8389 15.6853 14.6945 15.6853H13.0618C12.9175 15.6853 12.779 15.6279 12.677 15.5259C12.5749 15.4238 12.5176 15.2854 12.5176 15.141V13.5083" stroke="#6D737A" stroke-width="1.08848" stroke-linecap="round" stroke-linejoin="round"/>
<path d="M4.89821 13.5083V15.141C4.89821 15.2854 4.84087 15.4238 4.7388 15.5259C4.63674 15.6279 4.49831 15.6853 4.35397 15.6853H2.72124C2.5769 15.6853 2.43847 15.6279 2.33641 15.5259C2.23434 15.4238 2.177 15.2854 2.177 15.141V13.5083" stroke="#6D737A" stroke-width="1.08848" stroke-linecap="round" stroke-linejoin="round"/>
<path d="M4.35388 11.3313H5.44236" stroke="#6D737A" stroke-width="1.08848" stroke-linecap="round" stroke-linejoin="round"/>
<path d="M11.9733 11.3313H13.0617" stroke="#6D737A" stroke-width="1.08848" stroke-linecap="round" stroke-linejoin="round"/>
<path d="M15.2388 9.1544L13.2047 4.58277C13.1625 4.48605 13.0931 4.40369 13.0049 4.34572C12.9167 4.28774 12.8136 4.25665 12.7081 4.25623H4.70772C4.6022 4.25665 4.49907 4.28774 4.4109 4.34572C4.32273 4.40369 4.25331 4.48605 4.2111 4.58277L2.177 9.1544V13.5083H15.2388V9.1544Z" stroke="#6D737A" stroke-width="1.08848" stroke-linecap="round" stroke-linejoin="round"/>
</svg>
