<svg width="16" height="16" viewBox="0 0 16 16" fill="none" xmlns="http://www.w3.org/2000/svg">
<path d="M7.81463 13.1919C7.81463 13.1919 2.14545 10.0171 2.14545 6.16209C2.14545 5.48059 2.38156 4.82014 2.81363 4.29311C3.24569 3.76607 3.84701 3.40502 4.51528 3.27136C5.18354 3.13771 5.87747 3.23972 6.479 3.56003C7.08054 3.88035 7.55251 4.39918 7.81463 5.02825V5.02825C8.07674 4.39918 8.54872 3.88035 9.15025 3.56003C9.75178 3.23972 10.4457 3.13771 11.114 3.27136C11.7822 3.40502 12.3836 3.76607 12.8156 4.29311C13.2477 4.82014 13.4838 5.48059 13.4838 6.16209C13.4838 10.0171 7.81463 13.1919 7.81463 13.1919Z" stroke="#4A60A1" stroke-width="0.936687" stroke-linecap="round" stroke-linejoin="round"/>
</svg>
