<svg width="16" height="16" viewBox="0 0 16 16" fill="none" xmlns="http://www.w3.org/2000/svg">
<path d="M7.81469 13.1828C7.81469 13.1828 2.14551 10.0081 2.14551 6.15306C2.14551 5.47156 2.38163 4.81111 2.81369 4.28407C3.24575 3.75704 3.84707 3.39598 4.51534 3.26233C5.1836 3.12868 5.87753 3.23069 6.47907 3.551C7.0806 3.87131 7.55257 4.39014 7.81469 5.01922V5.01922C8.0768 4.39014 8.54878 3.87131 9.15031 3.551C9.75184 3.23069 10.4458 3.12868 11.114 3.26233C11.7823 3.39598 12.3836 3.75704 12.8157 4.28407C13.2477 4.81111 13.4839 5.47156 13.4839 6.15306C13.4839 10.0081 7.81469 13.1828 7.81469 13.1828Z" stroke="#4A60A1" stroke-width="0.936687" stroke-linecap="round" stroke-linejoin="round"/>
</svg>
