<svg width="16" height="16" viewBox="0 0 16 16" fill="none" xmlns="http://www.w3.org/2000/svg">
<path d="M7.81464 13.192C7.81464 13.192 2.14546 10.0173 2.14546 6.16226C2.14546 5.48076 2.38158 4.82031 2.81364 4.29327C3.24571 3.76624 3.84702 3.40518 4.51529 3.27153C5.18356 3.13788 5.87749 3.23989 6.47902 3.5602C7.08055 3.88051 7.55253 4.39934 7.81464 5.02842V5.02842C8.07676 4.39934 8.54873 3.88051 9.15026 3.5602C9.7518 3.23989 10.4457 3.13788 11.114 3.27153C11.7823 3.40518 12.3836 3.76624 12.8156 4.29327C13.2477 4.82031 13.4838 5.48076 13.4838 6.16226C13.4838 10.0173 7.81464 13.192 7.81464 13.192Z" stroke="#4A60A1" stroke-width="0.936687" stroke-linecap="round" stroke-linejoin="round"/>
</svg>
