<svg width="16" height="16" viewBox="0 0 16 16" fill="none" xmlns="http://www.w3.org/2000/svg">
<path d="M7.81463 13.192C7.81463 13.192 2.14545 10.0173 2.14545 6.16226C2.14545 5.48076 2.38156 4.82031 2.81363 4.29327C3.24569 3.76624 3.84701 3.40518 4.51528 3.27153C5.18354 3.13788 5.87747 3.23989 6.479 3.5602C7.08054 3.88051 7.55251 4.39934 7.81463 5.02842V5.02842C8.07674 4.39934 8.54872 3.88051 9.15025 3.5602C9.75178 3.23989 10.4457 3.13788 11.114 3.27153C11.7822 3.40518 12.3836 3.76624 12.8156 4.29327C13.2477 4.82031 13.4838 5.48076 13.4838 6.16226C13.4838 10.0173 7.81463 13.192 7.81463 13.192Z" stroke="#4A60A1" stroke-width="0.936687" stroke-linecap="round" stroke-linejoin="round"/>
</svg>
