<svg width="16" height="16" viewBox="0 0 16 16" fill="none" xmlns="http://www.w3.org/2000/svg">
<path d="M4.16008 10.008C5.16201 10.008 5.97422 9.19582 5.97422 8.1939C5.97422 7.19198 5.16201 6.37976 4.16008 6.37976C3.15816 6.37976 2.34595 7.19198 2.34595 8.1939C2.34595 9.19582 3.15816 10.008 4.16008 10.008Z" stroke="#4A60A1" stroke-width="0.936687" stroke-linecap="round" stroke-linejoin="round"/>
<path d="M10.5096 14.0898C11.5115 14.0898 12.3237 13.2776 12.3237 12.2757C12.3237 11.2738 11.5115 10.4615 10.5096 10.4615C9.50765 10.4615 8.69543 11.2738 8.69543 12.2757C8.69543 13.2776 9.50765 14.0898 10.5096 14.0898Z" stroke="#4A60A1" stroke-width="0.936687" stroke-linecap="round" stroke-linejoin="round"/>
<path d="M10.5096 5.92625C11.5115 5.92625 12.3237 5.11403 12.3237 4.11211C12.3237 3.11019 11.5115 2.29797 10.5096 2.29797C9.50765 2.29797 8.69543 3.11019 8.69543 4.11211C8.69543 5.11403 9.50765 5.92625 10.5096 5.92625Z" stroke="#4A60A1" stroke-width="0.936687" stroke-linecap="round" stroke-linejoin="round"/>
<path d="M8.98464 5.0929L5.68518 7.21317" stroke="#4A60A1" stroke-width="0.936687" stroke-linecap="round" stroke-linejoin="round"/>
<path d="M5.68518 9.17468L8.98464 11.295" stroke="#4A60A1" stroke-width="0.936687" stroke-linecap="round" stroke-linejoin="round"/>
</svg>
