<svg width="16" height="16" viewBox="0 0 16 16" fill="none" xmlns="http://www.w3.org/2000/svg">
<path d="M4.16018 10.0173C5.1621 10.0173 5.97431 9.20508 5.97431 8.20316C5.97431 7.20124 5.1621 6.38902 4.16018 6.38902C3.15826 6.38902 2.34604 7.20124 2.34604 8.20316C2.34604 9.20508 3.15826 10.0173 4.16018 10.0173Z" stroke="#4A60A1" stroke-width="0.936687" stroke-linecap="round" stroke-linejoin="round"/>
<path d="M10.5096 14.0991C11.5116 14.0991 12.3238 13.2869 12.3238 12.285C12.3238 11.2831 11.5116 10.4708 10.5096 10.4708C9.50771 10.4708 8.6955 11.2831 8.6955 12.285C8.6955 13.2869 9.50771 14.0991 10.5096 14.0991Z" stroke="#4A60A1" stroke-width="0.936687" stroke-linecap="round" stroke-linejoin="round"/>
<path d="M10.5096 5.9355C11.5116 5.9355 12.3238 5.12328 12.3238 4.12136C12.3238 3.11944 11.5116 2.30722 10.5096 2.30722C9.50771 2.30722 8.6955 3.11944 8.6955 4.12136C8.6955 5.12328 9.50771 5.9355 10.5096 5.9355Z" stroke="#4A60A1" stroke-width="0.936687" stroke-linecap="round" stroke-linejoin="round"/>
<path d="M8.98461 5.10211L5.68515 7.22238" stroke="#4A60A1" stroke-width="0.936687" stroke-linecap="round" stroke-linejoin="round"/>
<path d="M5.68515 9.18391L8.98461 11.3042" stroke="#4A60A1" stroke-width="0.936687" stroke-linecap="round" stroke-linejoin="round"/>
</svg>
