<svg width="16" height="16" viewBox="0 0 16 16" fill="none" xmlns="http://www.w3.org/2000/svg">
<path d="M4.16021 10.008C5.16213 10.008 5.97434 9.19582 5.97434 8.1939C5.97434 7.19198 5.16213 6.37976 4.16021 6.37976C3.15829 6.37976 2.34607 7.19198 2.34607 8.1939C2.34607 9.19582 3.15829 10.008 4.16021 10.008Z" stroke="#4A60A1" stroke-width="0.936687" stroke-linecap="round" stroke-linejoin="round"/>
<path d="M10.5097 14.0898C11.5116 14.0898 12.3238 13.2776 12.3238 12.2757C12.3238 11.2738 11.5116 10.4615 10.5097 10.4615C9.50777 10.4615 8.69556 11.2738 8.69556 12.2757C8.69556 13.2776 9.50777 14.0898 10.5097 14.0898Z" stroke="#4A60A1" stroke-width="0.936687" stroke-linecap="round" stroke-linejoin="round"/>
<path d="M10.5097 5.92625C11.5116 5.92625 12.3238 5.11403 12.3238 4.11211C12.3238 3.11019 11.5116 2.29797 10.5097 2.29797C9.50777 2.29797 8.69556 3.11019 8.69556 4.11211C8.69556 5.11403 9.50777 5.92625 10.5097 5.92625Z" stroke="#4A60A1" stroke-width="0.936687" stroke-linecap="round" stroke-linejoin="round"/>
<path d="M8.98464 5.0929L5.68518 7.21317" stroke="#4A60A1" stroke-width="0.936687" stroke-linecap="round" stroke-linejoin="round"/>
<path d="M5.68518 9.17468L8.98464 11.295" stroke="#4A60A1" stroke-width="0.936687" stroke-linecap="round" stroke-linejoin="round"/>
</svg>
