<svg width="20" height="21" viewBox="0 0 20 21" fill="none" xmlns="http://www.w3.org/2000/svg">
<path d="M8.07031 9.91249C8.07031 9.91249 9.96264 9.77383 9.96264 7.58353C9.96264 5.39308 8.41448 4.3241 6.4534 4.3241H0.000244141V16.5647H6.4534C6.4534 16.5647 10.3928 16.6875 10.3928 12.9518C10.3928 12.9518 10.5646 9.91249 8.07031 9.91249ZM5.9889 6.49972H6.4534C6.4534 6.49972 7.33057 6.49972 7.33057 7.77329C7.33057 9.04672 6.8147 9.23134 6.22956 9.23134H2.84359V6.49972H5.9889ZM6.27104 14.3891H2.84359V11.118H6.4534C6.4534 11.118 7.76078 11.1011 7.76078 12.799C7.76078 14.2307 6.78429 14.3783 6.27104 14.3891ZM15.6467 7.43846C10.8776 7.43846 10.8818 12.1416 10.8818 12.1416C10.8818 12.1416 10.5546 16.8207 15.6467 16.8207C15.6467 16.8207 19.8901 17.06 19.8901 13.5657H17.7078C17.7078 13.5657 17.7805 14.8816 15.7195 14.8816C15.7195 14.8816 13.5368 15.026 13.5368 12.752H19.9628C19.9628 12.752 20.666 7.43846 15.6467 7.43846ZM13.5129 11.118C13.5129 11.118 13.7793 9.23131 15.6952 9.23131C17.6106 9.23131 17.5866 11.118 17.5866 11.118H13.5129ZM18.095 6.55256H12.9786V5.04522H18.095V6.55256Z" fill="#4A60A1"/>
</svg>
