<svg width="20" height="21" viewBox="0 0 20 21" fill="none" xmlns="http://www.w3.org/2000/svg">
<path d="M8.07034 9.90297C8.07034 9.90297 9.96267 9.76431 9.96267 7.57401C9.96267 5.38356 8.41451 4.31458 6.45343 4.31458H0.000274658V16.5551H6.45343C6.45343 16.5551 10.3928 16.678 10.3928 12.9423C10.3928 12.9423 10.5646 9.90297 8.07034 9.90297ZM5.98893 6.4902H6.45343C6.45343 6.4902 7.3306 6.4902 7.3306 7.76377C7.3306 9.0372 6.81473 9.22182 6.22959 9.22182H2.84362V6.4902H5.98893ZM6.27107 14.3796H2.84362V11.1085H6.45343C6.45343 11.1085 7.76081 11.0915 7.76081 12.7895C7.76081 14.2212 6.78432 14.3688 6.27107 14.3796ZM15.6467 7.42893C10.8776 7.42893 10.8819 12.1321 10.8819 12.1321C10.8819 12.1321 10.5547 16.8112 15.6467 16.8112C15.6467 16.8112 19.8901 17.0505 19.8901 13.5562H17.7078C17.7078 13.5562 17.7806 14.8721 15.7195 14.8721C15.7195 14.8721 13.5369 15.0165 13.5369 12.7425H19.9629C19.9629 12.7425 20.666 7.42893 15.6467 7.42893ZM13.5129 11.1085C13.5129 11.1085 13.7794 9.22178 15.6952 9.22178C17.6107 9.22178 17.5867 11.1085 17.5867 11.1085H13.5129ZM18.095 6.54304H12.9786V5.0357H18.095V6.54304Z" fill="#4A60A1"/>
</svg>
